<svg version="1.1" xmlns="http://www.w3.org/2000/svg" xmlns:xlink="http://www.w3.org/1999/xlink" width="15.70588" height="15.61801" viewBox="0,0,15.70588,15.61801"><g transform="translate(-222.22703,-140.89707)"><g data-paper-data="{&quot;isPaintingLayer&quot;:true}" fill="#07050c" fill-rule="nonzero" stroke="#000000" stroke-width="0" stroke-linecap="butt" stroke-linejoin="miter" stroke-miterlimit="10" stroke-dasharray="" stroke-dashoffset="0" style="mix-blend-mode: normal"><path d="M222.25181,156.51509l-0.02478,-13.11801c0,-1.38071 1.11929,-2.5 2.5,-2.5h10.70588c1.38071,0 2.5,1.11929 2.5,2.5v10.58823c0,1.38071 -1.11929,2.5 -2.5,2.5zM234.37161,154.66828c1.07909,0 1.95387,-0.87478 1.95387,-1.95388v-8.27523c0,-1.07909 -0.87478,-1.95387 -1.95387,-1.95387h-8.36718c-1.07909,0 -1.95388,0.87478 -1.95388,1.95387l0.01936,10.25238zM225.91821,146.15443v-1.5h8.25v1.5z"/><path d="M225.91821,149.40443v-1.70833h8.08334v1.70833z"/><path d="M225.87655,152.32109v-1.5h5v1.5z"/></g></g></svg>