<svg version="1.1" xmlns="http://www.w3.org/2000/svg" xmlns:xlink="http://www.w3.org/1999/xlink" width="19.1" height="18.96666" viewBox="0,0,19.1,18.96666"><g transform="translate(-243.39536,-118.88113)"><g data-paper-data="{&quot;isPaintingLayer&quot;:true}" fill="#07050c" fill-rule="nonzero" stroke="#000000" stroke-width="0.5" stroke-linecap="butt" stroke-linejoin="miter" stroke-miterlimit="10" stroke-dasharray="" stroke-dashoffset="0" style="mix-blend-mode: normal"><path d="M262.24536,128.36446c0,5.09943 -4.16375,9.23333 -9.3,9.23333c-5.13625,0 -9.3,-4.1339 -9.3,-9.23333c0,-5.09943 4.16375,-9.23333 9.3,-9.23333c5.13625,0 9.3,4.1339 9.3,9.23333zM252.87099,120.26445c-4.54289,0 -8.22563,3.65634 -8.22563,8.16667c0,4.51032 3.68274,8.16666 8.22563,8.16666c4.54289,0 8.22563,-3.65634 8.22563,-8.16666c0,-4.51032 -3.68274,-8.16667 -8.22563,-8.16667zM256.47939,128.36717l-4.67244,2.73028v0.02575c-0.01397,0 -0.02782,-0.00049 -0.04154,-0.00147l-0.00182,0.00106l0.00001,-0.00119c-0.29959,-0.02217 -0.53575,-0.27225 -0.53575,-0.5775v-4.41651c0,-0.31983 0.25928,-0.5791 0.5791,-0.5791v0.01113zM252.21362,126.38143v-0.00767c-0.2127,0 -0.38514,0.17879 -0.38514,0.39935v3.04569c0,0.2105 0.15707,0.38297 0.35631,0.39826l-0.00001,0.00082l0.00121,-0.00073c0.00913,0.00067 0.01833,0.00101 0.02763,0.00101v-0.01775l3.09367,-1.87449l-0.4274,-0.28323z"/></g></g></svg>