<svg version="1.1" xmlns="http://www.w3.org/2000/svg" xmlns:xlink="http://www.w3.org/1999/xlink" width="18.78571" height="19.00001" viewBox="0,0,18.78571,19.00001"><g transform="translate(-220.83756,-118.48089)"><g data-paper-data="{&quot;isPaintingLayer&quot;:true}" fill="#07050c" fill-rule="nonzero" stroke="#000000" stroke-width="0.5" stroke-linecap="butt" stroke-linejoin="miter" stroke-miterlimit="10" stroke-dasharray="" stroke-dashoffset="0" style="mix-blend-mode: normal"><path d="M223.51181,137.23087c-1.33887,0 -2.42425,-1.04859 -2.42425,-2.3421v-8.03007c0,-0.32749 -0.1324,-0.5816 0.55769,-1.41859c2.03555,-2.46891 6.82687,-6.70922 8.4066,-6.70922c1.5727,0 5.811,3.22763 8.04829,5.64449c1.09283,1.18053 1.27313,2.05886 1.27313,2.48334v8.03008c0,1.29351 -1.08537,2.3421 -2.42424,2.3421h-4.70624c0,0 0.00033,-0.04223 0.00068,-0.10997c-0.11512,0.00205 -0.24026,0.00547 -0.3715,0.01088v-4.84968c0,-0.39288 -1.27307,-2.35636 -1.83355,-2.43186c-0.47291,-0.0637 -2.00087,2.03898 -2.00087,2.43186v3.87734h0.025c-0.01692,0.09772 -0.02575,1.05751 -0.02575,1.05751zM236.12077,136.15945c1.17862,0 2.13408,-0.92309 2.13408,-2.06177v-7.06894c0,-0.37367 -0.15873,-1.14687 -1.12075,-2.18611c-1.96951,-2.12758 -5.70052,-4.96889 -7.08498,-4.96889c-1.39065,0 -5.6085,3.73278 -7.40041,5.90619c-0.60749,0.73682 -0.49094,0.96051 -0.49094,1.24881v7.06894c0,1.13869 0.95547,2.06177 2.13408,2.06177h2.55388v-4.82543c0,-0.46585 2.41859,-2.95902 3.16714,-2.88349c0.88719,0.08952 2.9023,2.41764 2.9023,2.88349v4.82543z"/></g></g></svg>