<svg version="1.1" xmlns="http://www.w3.org/2000/svg" xmlns:xlink="http://www.w3.org/1999/xlink" width="19.1" height="18.96667" viewBox="0,0,19.1,18.96667"><g transform="translate(-241.35369,-139.79778)"><g data-paper-data="{&quot;isPaintingLayer&quot;:true}" fill="#07050c" fill-rule="nonzero" stroke="#000000" stroke-width="0.5" stroke-linecap="butt" stroke-linejoin="miter" stroke-miterlimit="10" stroke-dasharray="" stroke-dashoffset="0" style="mix-blend-mode: normal"><g><path d="M248.83488,149.02943c0,0.85144 -0.66224,1.54167 -1.47916,1.54167c-0.81692,0 -1.47917,-0.69022 -1.47917,-1.54167c0,-0.85144 0.66225,-1.54166 1.47917,-1.54166c0.81692,0 1.47916,0.69022 1.47916,1.54166zM252.20987,149.11277c0,0.85144 -0.66225,1.54166 -1.47917,1.54166c-0.81692,0 -1.47916,-0.69022 -1.47916,-1.54166c0,-0.85144 0.66224,-1.54167 1.47916,-1.54167c0.81692,0 1.47917,0.69022 1.47917,1.54167z"/><path d="M248.83488,149.02943c0,0.85144 -0.66224,1.54167 -1.47916,1.54167c-0.81692,0 -1.47917,-0.69022 -1.47917,-1.54167c0,-0.85144 0.66225,-1.54166 1.47917,-1.54166c0.81692,0 1.47916,0.69022 1.47916,1.54166zM255.58488,149.11277c0,0.85144 -0.66224,1.54166 -1.47916,1.54166c-0.81692,0 -1.47917,-0.69022 -1.47917,-1.54166c0,-0.85144 0.66225,-1.54167 1.47917,-1.54167c0.81692,0 1.47916,0.69022 1.47916,1.54167z"/><path d="M248.83488,149.02943c0,0.85144 -0.66224,1.54167 -1.47916,1.54167c-0.81692,0 -1.47917,-0.69022 -1.47917,-1.54167c0,-0.85144 0.66225,-1.54166 1.47917,-1.54166c0.81692,0 1.47916,0.69022 1.47916,1.54166zM260.20369,149.28113c0,5.09943 -4.16375,9.23333 -9.3,9.23333c-5.13625,0 -9.3,-4.1339 -9.3,-9.23333c0,-5.09943 4.16375,-9.23334 9.3,-9.23334c5.13625,0 9.3,4.13391 9.3,9.23334zM250.82932,141.18113c-4.54289,0 -8.22563,3.65634 -8.22563,8.16667c0,4.51033 3.68273,8.16666 8.22563,8.16666c4.5429,0 8.22563,-3.65634 8.22563,-8.16666c0,-4.51033 -3.68274,-8.16667 -8.22563,-8.16667z"/></g></g></g></svg>